<svg width="33" height="32" viewBox="0 0 33 32" fill="none" xmlns="http://www.w3.org/2000/svg">
<rect width="32" height="32" transform="translate(0.75293)" fill="black"/>
<path d="M8.8854 17.8993C16.2612 21.69 23.127 11.4944 24.4178 13.7165C25.4591 16.9843 22.8125 21.1236 13.3109 25.0014C12.096 25.8293 9.70977 25.2193 8.66851 23.2586C8.27802 20.4265 7.20379 17.0351 8.8854 17.8993Z" fill="white" fill-opacity="0.75"/>
<path d="M20.9469 9.01069C20.9469 14.7621 9.40599 16.1128 8.66844 23.2585C4.54676 12.8885 15.6103 9.83854 16.7818 4C18.604 5.65571 20.9469 6.96284 20.9469 9.01069Z" fill="white"/>
<path d="M12.5732 26.1341C15.5669 31.3626 30.1882 25.0884 24.4178 13.7163C21.1638 23.607 10.6208 21.6027 12.5732 26.1341Z" fill="white"/>
</svg>
